<mxfile host="Electron" modified="2023-05-22T15:30:26.055Z" agent="Mozilla/5.0 (Windows NT 10.0; Win64; x64) AppleWebKit/537.36 (KHTML, like Gecko) draw.io/21.2.8 Chrome/112.0.5615.165 Electron/24.2.0 Safari/537.36" etag="yMYTACOmWj9Ytq60BD3_" version="21.2.8" type="device">
  <diagram id="C5RBs43oDa-KdzZeNtuy" name="Page-1">
    <mxGraphModel dx="863" dy="547" grid="1" gridSize="10" guides="1" tooltips="1" connect="1" arrows="1" fold="1" page="1" pageScale="1" pageWidth="827" pageHeight="1169" math="0" shadow="0">
      <root>
        <mxCell id="WIyWlLk6GJQsqaUBKTNV-0" />
        <mxCell id="WIyWlLk6GJQsqaUBKTNV-1" parent="WIyWlLk6GJQsqaUBKTNV-0" />
        <mxCell id="3ODWMDdF5giHEPFokoJv-33" value="Yes" style="rounded=0;html=1;jettySize=auto;orthogonalLoop=1;fontSize=11;endArrow=block;endFill=0;endSize=8;strokeWidth=1;shadow=0;labelBackgroundColor=none;edgeStyle=orthogonalEdgeStyle;exitX=1;exitY=0.5;exitDx=0;exitDy=0;entryX=0;entryY=0.5;entryDx=0;entryDy=0;" parent="WIyWlLk6GJQsqaUBKTNV-1" edge="1">
          <mxGeometry y="20" relative="1" as="geometry">
            <mxPoint as="offset" />
            <mxPoint x="424" y="530" as="targetPoint" />
          </mxGeometry>
        </mxCell>
        <mxCell id="7OXbnp42D5U2tR_pvhxg-42" value="start" style="ellipse;whiteSpace=wrap;html=1;fillColor=#dae8fc;strokeColor=#6c8ebf;" parent="WIyWlLk6GJQsqaUBKTNV-1" vertex="1">
          <mxGeometry x="92" y="20" width="120" height="50" as="geometry" />
        </mxCell>
        <mxCell id="7OXbnp42D5U2tR_pvhxg-43" value="" style="endArrow=classic;html=1;rounded=0;exitX=0.5;exitY=1;exitDx=0;exitDy=0;entryX=0.5;entryY=0;entryDx=0;entryDy=0;" parent="WIyWlLk6GJQsqaUBKTNV-1" source="7OXbnp42D5U2tR_pvhxg-42" target="7OXbnp42D5U2tR_pvhxg-45" edge="1">
          <mxGeometry width="50" height="50" relative="1" as="geometry">
            <mxPoint x="747.0000000000002" y="654" as="sourcePoint" />
            <mxPoint x="747" y="684" as="targetPoint" />
          </mxGeometry>
        </mxCell>
        <mxCell id="7OXbnp42D5U2tR_pvhxg-73" value="" style="edgeStyle=orthogonalEdgeStyle;rounded=0;orthogonalLoop=1;jettySize=auto;html=1;" parent="WIyWlLk6GJQsqaUBKTNV-1" source="7OXbnp42D5U2tR_pvhxg-45" target="7OXbnp42D5U2tR_pvhxg-72" edge="1">
          <mxGeometry relative="1" as="geometry" />
        </mxCell>
        <mxCell id="7OXbnp42D5U2tR_pvhxg-45" value="*str" style="shape=parallelogram;perimeter=parallelogramPerimeter;whiteSpace=wrap;html=1;fixedSize=1;fillColor=#e1d5e7;strokeColor=#9673a6;" parent="WIyWlLk6GJQsqaUBKTNV-1" vertex="1">
          <mxGeometry x="92" y="110" width="120" height="30" as="geometry" />
        </mxCell>
        <mxCell id="7OXbnp42D5U2tR_pvhxg-52" value="end" style="ellipse;whiteSpace=wrap;html=1;fillColor=#dae8fc;strokeColor=#6c8ebf;" parent="WIyWlLk6GJQsqaUBKTNV-1" vertex="1">
          <mxGeometry x="92" y="339" width="120" height="50" as="geometry" />
        </mxCell>
        <mxCell id="7OXbnp42D5U2tR_pvhxg-57" value="&lt;font style=&quot;font-size: 22px;&quot;&gt;&lt;b&gt;LCD_sendString&lt;/b&gt;&lt;/font&gt;" style="text;html=1;align=center;verticalAlign=middle;resizable=0;points=[];autosize=1;strokeColor=none;fillColor=none;" parent="WIyWlLk6GJQsqaUBKTNV-1" vertex="1">
          <mxGeometry x="600" y="170" width="200" height="40" as="geometry" />
        </mxCell>
        <mxCell id="7OXbnp42D5U2tR_pvhxg-58" value="&lt;font style=&quot;font-size: 12px;&quot;&gt;&amp;nbsp;sendchar srt[i]&lt;br&gt;i++&lt;/font&gt;" style="rounded=0;whiteSpace=wrap;html=1;fillColor=#d5e8d4;strokeColor=#82b366;" parent="WIyWlLk6GJQsqaUBKTNV-1" vertex="1">
          <mxGeometry x="265" y="250" width="160" height="40" as="geometry" />
        </mxCell>
        <mxCell id="7OXbnp42D5U2tR_pvhxg-61" value="str[i] is not&lt;br&gt;NULL" style="rhombus;whiteSpace=wrap;html=1;shadow=0;fontFamily=Helvetica;fontSize=12;align=center;strokeWidth=1;spacing=6;spacingTop=-4;fillColor=#fff2cc;strokeColor=#d6b656;" parent="WIyWlLk6GJQsqaUBKTNV-1" vertex="1">
          <mxGeometry x="102" y="230" width="100" height="80" as="geometry" />
        </mxCell>
        <mxCell id="7OXbnp42D5U2tR_pvhxg-63" value="Yes" style="rounded=0;html=1;jettySize=auto;orthogonalLoop=1;fontSize=11;endArrow=block;endFill=0;endSize=8;strokeWidth=1;shadow=0;labelBackgroundColor=none;edgeStyle=orthogonalEdgeStyle;exitX=1;exitY=0.5;exitDx=0;exitDy=0;entryX=0;entryY=0.5;entryDx=0;entryDy=0;" parent="WIyWlLk6GJQsqaUBKTNV-1" source="7OXbnp42D5U2tR_pvhxg-61" target="7OXbnp42D5U2tR_pvhxg-58" edge="1">
          <mxGeometry y="20" relative="1" as="geometry">
            <mxPoint as="offset" />
            <mxPoint x="432" y="293.76" as="targetPoint" />
            <mxPoint x="367" y="293.76" as="sourcePoint" />
          </mxGeometry>
        </mxCell>
        <mxCell id="7OXbnp42D5U2tR_pvhxg-69" value="No" style="edgeStyle=orthogonalEdgeStyle;rounded=0;html=1;jettySize=auto;orthogonalLoop=1;fontSize=11;endArrow=block;endFill=0;endSize=8;strokeWidth=1;shadow=0;labelBackgroundColor=none;exitX=0.5;exitY=1;exitDx=0;exitDy=0;" parent="WIyWlLk6GJQsqaUBKTNV-1" source="7OXbnp42D5U2tR_pvhxg-61" edge="1">
          <mxGeometry x="-0.3333" y="10" relative="1" as="geometry">
            <mxPoint as="offset" />
            <mxPoint x="-313" y="344" as="sourcePoint" />
            <mxPoint x="152" y="340" as="targetPoint" />
          </mxGeometry>
        </mxCell>
        <mxCell id="7OXbnp42D5U2tR_pvhxg-70" value="" style="endArrow=classic;html=1;rounded=0;exitX=1;exitY=0.5;exitDx=0;exitDy=0;" parent="WIyWlLk6GJQsqaUBKTNV-1" source="7OXbnp42D5U2tR_pvhxg-58" edge="1">
          <mxGeometry width="50" height="50" relative="1" as="geometry">
            <mxPoint x="107" y="340" as="sourcePoint" />
            <mxPoint x="157" y="200" as="targetPoint" />
            <Array as="points">
              <mxPoint x="457" y="270" />
              <mxPoint x="457" y="200" />
            </Array>
          </mxGeometry>
        </mxCell>
        <mxCell id="7OXbnp42D5U2tR_pvhxg-74" value="" style="edgeStyle=orthogonalEdgeStyle;rounded=0;orthogonalLoop=1;jettySize=auto;html=1;" parent="WIyWlLk6GJQsqaUBKTNV-1" source="7OXbnp42D5U2tR_pvhxg-72" target="7OXbnp42D5U2tR_pvhxg-61" edge="1">
          <mxGeometry relative="1" as="geometry" />
        </mxCell>
        <mxCell id="7OXbnp42D5U2tR_pvhxg-72" value="i=0" style="rounded=0;whiteSpace=wrap;html=1;fillColor=#d5e8d4;strokeColor=#82b366;" parent="WIyWlLk6GJQsqaUBKTNV-1" vertex="1">
          <mxGeometry x="92" y="164" width="120" height="20" as="geometry" />
        </mxCell>
        <mxCell id="7OXbnp42D5U2tR_pvhxg-75" value="start" style="ellipse;whiteSpace=wrap;html=1;fillColor=#dae8fc;strokeColor=#6c8ebf;" parent="WIyWlLk6GJQsqaUBKTNV-1" vertex="1">
          <mxGeometry x="112" y="963" width="120" height="50" as="geometry" />
        </mxCell>
        <mxCell id="7OXbnp42D5U2tR_pvhxg-76" value="" style="endArrow=classic;html=1;rounded=0;exitX=0.5;exitY=1;exitDx=0;exitDy=0;entryX=0.5;entryY=0;entryDx=0;entryDy=0;" parent="WIyWlLk6GJQsqaUBKTNV-1" source="7OXbnp42D5U2tR_pvhxg-75" target="7OXbnp42D5U2tR_pvhxg-78" edge="1">
          <mxGeometry width="50" height="50" relative="1" as="geometry">
            <mxPoint x="172.00000000000023" y="1047" as="sourcePoint" />
            <mxPoint x="172" y="1077" as="targetPoint" />
          </mxGeometry>
        </mxCell>
        <mxCell id="7OXbnp42D5U2tR_pvhxg-77" value="" style="edgeStyle=orthogonalEdgeStyle;rounded=0;orthogonalLoop=1;jettySize=auto;html=1;" parent="WIyWlLk6GJQsqaUBKTNV-1" source="7OXbnp42D5U2tR_pvhxg-78" target="7OXbnp42D5U2tR_pvhxg-87" edge="1">
          <mxGeometry relative="1" as="geometry" />
        </mxCell>
        <mxCell id="7OXbnp42D5U2tR_pvhxg-78" value="*pattrern , location" style="shape=parallelogram;perimeter=parallelogramPerimeter;whiteSpace=wrap;html=1;fixedSize=1;fillColor=#e1d5e7;strokeColor=#9673a6;" parent="WIyWlLk6GJQsqaUBKTNV-1" vertex="1">
          <mxGeometry x="92" y="1053" width="160" height="30" as="geometry" />
        </mxCell>
        <mxCell id="7OXbnp42D5U2tR_pvhxg-79" value="end" style="ellipse;whiteSpace=wrap;html=1;fillColor=#dae8fc;strokeColor=#6c8ebf;" parent="WIyWlLk6GJQsqaUBKTNV-1" vertex="1">
          <mxGeometry x="112" y="1311.5" width="120" height="50" as="geometry" />
        </mxCell>
        <mxCell id="7OXbnp42D5U2tR_pvhxg-80" value="&lt;font style=&quot;font-size: 22px;&quot;&gt;&lt;b&gt;LCD_customCharacter&lt;/b&gt;&lt;/font&gt;" style="text;html=1;align=center;verticalAlign=middle;resizable=0;points=[];autosize=1;strokeColor=none;fillColor=none;" parent="WIyWlLk6GJQsqaUBKTNV-1" vertex="1">
          <mxGeometry x="42" y="910" width="260" height="40" as="geometry" />
        </mxCell>
        <mxCell id="7OXbnp42D5U2tR_pvhxg-81" value="&lt;font style=&quot;font-size: 12px;&quot;&gt;&amp;nbsp;sendchar pattern[i]&lt;br&gt;i++&lt;/font&gt;" style="rounded=0;whiteSpace=wrap;html=1;fillColor=#d5e8d4;strokeColor=#82b366;" parent="WIyWlLk6GJQsqaUBKTNV-1" vertex="1">
          <mxGeometry x="294" y="1222.5" width="130" height="40" as="geometry" />
        </mxCell>
        <mxCell id="7OXbnp42D5U2tR_pvhxg-82" value="i&amp;lt;8" style="rhombus;whiteSpace=wrap;html=1;shadow=0;fontFamily=Helvetica;fontSize=12;align=center;strokeWidth=1;spacing=6;spacingTop=-4;fillColor=#fff2cc;strokeColor=#d6b656;" parent="WIyWlLk6GJQsqaUBKTNV-1" vertex="1">
          <mxGeometry x="122" y="1202.5" width="100" height="80" as="geometry" />
        </mxCell>
        <mxCell id="7OXbnp42D5U2tR_pvhxg-83" value="Yes" style="rounded=0;html=1;jettySize=auto;orthogonalLoop=1;fontSize=11;endArrow=block;endFill=0;endSize=8;strokeWidth=1;shadow=0;labelBackgroundColor=none;edgeStyle=orthogonalEdgeStyle;exitX=1;exitY=0.5;exitDx=0;exitDy=0;entryX=0;entryY=0.5;entryDx=0;entryDy=0;" parent="WIyWlLk6GJQsqaUBKTNV-1" source="7OXbnp42D5U2tR_pvhxg-82" target="7OXbnp42D5U2tR_pvhxg-81" edge="1">
          <mxGeometry y="20" relative="1" as="geometry">
            <mxPoint as="offset" />
            <mxPoint x="452" y="1266.26" as="targetPoint" />
            <mxPoint x="387" y="1266.26" as="sourcePoint" />
          </mxGeometry>
        </mxCell>
        <mxCell id="7OXbnp42D5U2tR_pvhxg-84" value="No" style="edgeStyle=orthogonalEdgeStyle;rounded=0;html=1;jettySize=auto;orthogonalLoop=1;fontSize=11;endArrow=block;endFill=0;endSize=8;strokeWidth=1;shadow=0;labelBackgroundColor=none;exitX=0.5;exitY=1;exitDx=0;exitDy=0;" parent="WIyWlLk6GJQsqaUBKTNV-1" source="7OXbnp42D5U2tR_pvhxg-82" edge="1">
          <mxGeometry x="-0.3333" y="10" relative="1" as="geometry">
            <mxPoint as="offset" />
            <mxPoint x="-293" y="1316.5" as="sourcePoint" />
            <mxPoint x="172" y="1312.5" as="targetPoint" />
          </mxGeometry>
        </mxCell>
        <mxCell id="7OXbnp42D5U2tR_pvhxg-85" value="" style="endArrow=classic;html=1;rounded=0;exitX=1;exitY=0.5;exitDx=0;exitDy=0;" parent="WIyWlLk6GJQsqaUBKTNV-1" source="7OXbnp42D5U2tR_pvhxg-81" edge="1">
          <mxGeometry width="50" height="50" relative="1" as="geometry">
            <mxPoint x="127" y="1312.5" as="sourcePoint" />
            <mxPoint x="177" y="1172.5" as="targetPoint" />
            <Array as="points">
              <mxPoint x="477" y="1242.5" />
              <mxPoint x="477" y="1172.5" />
            </Array>
          </mxGeometry>
        </mxCell>
        <mxCell id="7OXbnp42D5U2tR_pvhxg-86" value="" style="edgeStyle=orthogonalEdgeStyle;rounded=0;orthogonalLoop=1;jettySize=auto;html=1;exitX=0.5;exitY=1;exitDx=0;exitDy=0;" parent="WIyWlLk6GJQsqaUBKTNV-1" source="7OXbnp42D5U2tR_pvhxg-87" target="7OXbnp42D5U2tR_pvhxg-82" edge="1">
          <mxGeometry relative="1" as="geometry">
            <mxPoint x="62" y="1193" as="sourcePoint" />
          </mxGeometry>
        </mxCell>
        <mxCell id="7OXbnp42D5U2tR_pvhxg-87" value="i=0&lt;br&gt;sendcommand (&amp;amp;CGRAM + 8*location)" style="rounded=0;whiteSpace=wrap;html=1;fillColor=#d5e8d4;strokeColor=#82b366;" parent="WIyWlLk6GJQsqaUBKTNV-1" vertex="1">
          <mxGeometry x="62" y="1107" width="220" height="46" as="geometry" />
        </mxCell>
        <mxCell id="FkHEN5-tC4qZl9KAhjUy-23" value="start" style="ellipse;whiteSpace=wrap;html=1;fillColor=#dae8fc;strokeColor=#6c8ebf;" parent="WIyWlLk6GJQsqaUBKTNV-1" vertex="1">
          <mxGeometry x="440" y="473.25" width="120" height="50" as="geometry" />
        </mxCell>
        <mxCell id="FkHEN5-tC4qZl9KAhjUy-24" value="" style="endArrow=classic;html=1;rounded=0;exitX=0.5;exitY=1;exitDx=0;exitDy=0;entryX=0.5;entryY=0;entryDx=0;entryDy=0;" parent="WIyWlLk6GJQsqaUBKTNV-1" source="FkHEN5-tC4qZl9KAhjUy-23" target="FkHEN5-tC4qZl9KAhjUy-26" edge="1">
          <mxGeometry width="50" height="50" relative="1" as="geometry">
            <mxPoint x="500.0000000000002" y="557.25" as="sourcePoint" />
            <mxPoint x="500" y="587.25" as="targetPoint" />
          </mxGeometry>
        </mxCell>
        <mxCell id="FkHEN5-tC4qZl9KAhjUy-25" value="" style="edgeStyle=orthogonalEdgeStyle;rounded=0;orthogonalLoop=1;jettySize=auto;html=1;" parent="WIyWlLk6GJQsqaUBKTNV-1" source="FkHEN5-tC4qZl9KAhjUy-26" target="FkHEN5-tC4qZl9KAhjUy-35" edge="1">
          <mxGeometry relative="1" as="geometry" />
        </mxCell>
        <mxCell id="FkHEN5-tC4qZl9KAhjUy-26" value="row , column" style="shape=parallelogram;perimeter=parallelogramPerimeter;whiteSpace=wrap;html=1;fixedSize=1;fillColor=#e1d5e7;strokeColor=#9673a6;" parent="WIyWlLk6GJQsqaUBKTNV-1" vertex="1">
          <mxGeometry x="420" y="563.25" width="160" height="30" as="geometry" />
        </mxCell>
        <mxCell id="FkHEN5-tC4qZl9KAhjUy-27" value="end" style="ellipse;whiteSpace=wrap;html=1;fillColor=#dae8fc;strokeColor=#6c8ebf;" parent="WIyWlLk6GJQsqaUBKTNV-1" vertex="1">
          <mxGeometry x="440" y="821.75" width="120" height="50" as="geometry" />
        </mxCell>
        <mxCell id="FkHEN5-tC4qZl9KAhjUy-28" value="&lt;font style=&quot;font-size: 22px;&quot;&gt;&lt;b&gt;&amp;nbsp;LCD_setCursor&lt;/b&gt;&lt;/font&gt;" style="text;html=1;align=center;verticalAlign=middle;resizable=0;points=[];autosize=1;strokeColor=none;fillColor=none;" parent="WIyWlLk6GJQsqaUBKTNV-1" vertex="1">
          <mxGeometry x="311" y="410" width="190" height="40" as="geometry" />
        </mxCell>
        <mxCell id="FkHEN5-tC4qZl9KAhjUy-30" value="i&amp;lt;c" style="rhombus;whiteSpace=wrap;html=1;shadow=0;fontFamily=Helvetica;fontSize=12;align=center;strokeWidth=1;spacing=6;spacingTop=-4;fillColor=#fff2cc;strokeColor=#d6b656;" parent="WIyWlLk6GJQsqaUBKTNV-1" vertex="1">
          <mxGeometry x="450" y="712.75" width="100" height="80" as="geometry" />
        </mxCell>
        <mxCell id="FkHEN5-tC4qZl9KAhjUy-31" value="Yes" style="rounded=0;html=1;jettySize=auto;orthogonalLoop=1;fontSize=11;endArrow=block;endFill=0;endSize=8;strokeWidth=1;shadow=0;labelBackgroundColor=none;edgeStyle=orthogonalEdgeStyle;exitX=0;exitY=0.5;exitDx=0;exitDy=0;entryX=1;entryY=0.5;entryDx=0;entryDy=0;" parent="WIyWlLk6GJQsqaUBKTNV-1" source="FkHEN5-tC4qZl9KAhjUy-30" target="ZeAL9YpTeijRMLMKGbMC-0" edge="1">
          <mxGeometry x="-0.0476" y="-9" relative="1" as="geometry">
            <mxPoint as="offset" />
            <mxPoint x="612" y="751.7499999999998" as="targetPoint" />
            <mxPoint x="715" y="776.51" as="sourcePoint" />
          </mxGeometry>
        </mxCell>
        <mxCell id="FkHEN5-tC4qZl9KAhjUy-32" value="No" style="edgeStyle=orthogonalEdgeStyle;rounded=0;html=1;jettySize=auto;orthogonalLoop=1;fontSize=11;endArrow=block;endFill=0;endSize=8;strokeWidth=1;shadow=0;labelBackgroundColor=none;exitX=0.5;exitY=1;exitDx=0;exitDy=0;" parent="WIyWlLk6GJQsqaUBKTNV-1" source="FkHEN5-tC4qZl9KAhjUy-30" edge="1">
          <mxGeometry x="-0.3333" y="10" relative="1" as="geometry">
            <mxPoint as="offset" />
            <mxPoint x="35" y="826.75" as="sourcePoint" />
            <mxPoint x="500" y="822.75" as="targetPoint" />
          </mxGeometry>
        </mxCell>
        <mxCell id="FkHEN5-tC4qZl9KAhjUy-33" value="" style="endArrow=classic;html=1;rounded=0;exitX=0;exitY=0.5;exitDx=0;exitDy=0;" parent="WIyWlLk6GJQsqaUBKTNV-1" source="ZeAL9YpTeijRMLMKGbMC-0" edge="1">
          <mxGeometry width="50" height="50" relative="1" as="geometry">
            <mxPoint x="772.0000000000005" y="751.7499999999998" as="sourcePoint" />
            <mxPoint x="500" y="700" as="targetPoint" />
            <Array as="points">
              <mxPoint x="170" y="753" />
              <mxPoint x="170" y="700" />
            </Array>
          </mxGeometry>
        </mxCell>
        <mxCell id="FkHEN5-tC4qZl9KAhjUy-34" value="" style="edgeStyle=orthogonalEdgeStyle;rounded=0;orthogonalLoop=1;jettySize=auto;html=1;exitX=0.5;exitY=1;exitDx=0;exitDy=0;" parent="WIyWlLk6GJQsqaUBKTNV-1" source="FkHEN5-tC4qZl9KAhjUy-35" target="FkHEN5-tC4qZl9KAhjUy-30" edge="1">
          <mxGeometry relative="1" as="geometry">
            <mxPoint x="390" y="703.25" as="sourcePoint" />
          </mxGeometry>
        </mxCell>
        <mxCell id="FkHEN5-tC4qZl9KAhjUy-35" value="Cursor return Home&lt;br&gt;uint8_t i = 0, c = 40*row +column" style="rounded=0;whiteSpace=wrap;html=1;fillColor=#d5e8d4;strokeColor=#82b366;" parent="WIyWlLk6GJQsqaUBKTNV-1" vertex="1">
          <mxGeometry x="390" y="617.25" width="220" height="46" as="geometry" />
        </mxCell>
        <mxCell id="ZeAL9YpTeijRMLMKGbMC-0" value="&lt;font style=&quot;font-size: 12px;&quot;&gt;&amp;nbsp;sendcommand&lt;br&gt;Shift the cursor to &lt;br&gt;the right, i++&lt;br&gt;&lt;/font&gt;" style="rounded=0;whiteSpace=wrap;html=1;fillColor=#d5e8d4;strokeColor=#82b366;" parent="WIyWlLk6GJQsqaUBKTNV-1" vertex="1">
          <mxGeometry x="230" y="723" width="160" height="60" as="geometry" />
        </mxCell>
      </root>
    </mxGraphModel>
  </diagram>
</mxfile>
